<svg width="58" height="48" viewBox="0 0 58 48" fill="none" xmlns="http://www.w3.org/2000/svg">
<path d="M56.073 12.567C56.3931 12.4513 56.6698 12.2397 56.8653 11.9611C57.0608 11.6825 57.1657 11.3504 57.1657 11.01C57.1657 10.6696 57.0608 10.3375 56.8653 10.0589C56.6698 9.78029 56.3931 9.56871 56.073 9.45298L29.5405 0.0898131C29.184 -0.0299377 28.798 -0.0299377 28.4415 0.0898131L1.90895 9.45298C1.58885 9.56871 1.3122 9.78029 1.11666 10.0589C0.921132 10.3375 0.816223 10.6696 0.816223 11.01C0.816223 11.3504 0.921132 11.6825 1.11666 11.9611C1.3122 12.2397 1.58885 12.4513 1.90895 12.567L12.4205 16.301V27.0732C12.4205 28.8486 14.2734 30.3563 17.9299 31.5399C21.5139 32.6344 25.2438 33.1761 28.991 33.1462C32.7382 33.1761 36.4681 32.6344 40.0521 31.5399C43.7086 30.3563 45.5615 28.8486 45.5615 27.0732V16.301L49.9014 14.7933V29.687C48.9173 30.013 48.0609 30.6407 47.4539 31.4812C46.847 32.3216 46.5203 33.3319 46.5203 34.3686C46.5203 35.4053 46.847 36.4156 47.4539 37.256C48.0609 38.0965 48.9173 38.7242 49.9014 39.0502V45.3557C49.8866 45.5817 49.9184 45.8084 49.9947 46.0217C50.0711 46.2349 50.1903 46.4303 50.3452 46.5956C50.5001 46.7609 50.6872 46.8927 50.895 46.9827C51.1029 47.0728 51.327 47.1193 51.5535 47.1193C51.78 47.1193 52.0041 47.0728 52.2119 46.9827C52.4198 46.8927 52.6069 46.7609 52.7618 46.5956C52.9166 46.4303 53.0359 46.2349 53.1123 46.0217C53.1886 45.8084 53.2204 45.5817 53.2056 45.3557V39.0502C54.1897 38.7242 55.0461 38.0965 55.653 37.256C56.26 36.4156 56.5867 35.4053 56.5867 34.3686C56.5867 33.3319 56.26 32.3216 55.653 31.4812C55.0461 30.6407 54.1897 30.013 53.2056 29.687V13.5886L56.073 12.567ZM51.5359 36.0348C51.205 36.0362 50.8812 35.9393 50.6056 35.7563C50.3299 35.5734 50.1148 35.3127 49.9876 35.0073C49.8603 34.7019 49.8266 34.3656 49.8909 34.0411C49.9551 33.7165 50.1142 33.4184 50.3482 33.1844C50.5821 32.9505 50.8803 32.7913 51.2048 32.7271C51.5294 32.6629 51.8657 32.6966 52.1711 32.8238C52.4765 32.9511 52.7372 33.1662 52.9201 33.4418C53.103 33.7175 53.1999 34.0413 53.1986 34.3721C53.1967 34.8125 53.0209 35.2344 52.7095 35.5458C52.3981 35.8572 51.9763 36.033 51.5359 36.0348ZM28.991 3.40109L50.5777 11.017L28.991 18.6893L7.40426 11.017L28.991 3.40109ZM42.2643 26.8266C41.9473 27.1437 40.813 27.9046 38.2555 28.6373C35.2352 29.4519 32.1192 29.8571 28.991 29.842C25.8628 29.8571 22.7468 29.4519 19.7264 28.6373C17.169 27.9327 16.0347 27.1437 15.7177 26.8266V17.4776L28.4344 22.0006C28.6134 22.0624 28.8016 22.0933 28.991 22.0922C29.1781 22.0939 29.3641 22.0629 29.5405 22.0006L42.2643 17.4776V26.8266Z" fill="#324894"/>
</svg>
