<svg width="48" height="47" viewBox="0 0 48 47" fill="none" xmlns="http://www.w3.org/2000/svg">
<path d="M41.9949 30.4584C40.8961 30.4601 39.8278 30.8197 38.9517 31.4829C38.0756 32.1461 37.4394 33.0767 37.1395 34.1337H32.2606V28.7558H37.2393C39.5887 28.7523 41.8589 27.9057 43.637 26.3701C45.4151 24.8345 46.5831 22.7117 46.9286 20.3878C47.2741 18.0639 46.7741 15.6932 45.5197 13.7067C44.2652 11.7203 42.3395 10.2499 40.0927 9.5631C39.4839 7.14223 38.0853 4.99348 36.1181 3.4569C34.1508 1.92032 31.7273 1.08366 29.2311 1.07934C27.2598 1.07234 25.3223 1.59116 23.6183 2.58234C22.2343 1.31225 20.5147 0.466202 18.664 0.144732C16.8132 -0.176737 14.909 0.0398907 13.1778 0.768872C11.4465 1.49785 9.96096 2.70854 8.8976 4.25706C7.83424 5.80559 7.23781 7.62684 7.17917 9.50439C4.89256 10.1399 2.91408 11.5833 1.61077 13.5667C0.307456 15.5501 -0.232215 17.9389 0.091871 20.29C0.415957 22.641 1.5818 24.7947 3.37312 26.3515C5.16444 27.9084 7.45963 28.7626 9.83291 28.7558H14.8116V34.1337H9.93859C9.60624 32.9596 8.86037 31.9453 7.83866 31.2781C6.81695 30.6108 5.58837 30.3357 4.37967 30.5035C3.17098 30.6712 2.06377 31.2706 1.26241 32.1909C0.461046 33.1111 0.019628 34.2902 0.019628 35.5105C0.019628 36.7308 0.461046 37.9099 1.26241 38.8302C2.06377 39.7504 3.17098 40.3498 4.37967 40.5175C5.58837 40.6853 6.81695 40.4102 7.83866 39.743C8.86037 39.0757 9.60624 38.0614 9.93859 36.8873H16.1913C16.5562 36.8873 16.9063 36.7427 17.1649 36.4853C17.4234 36.2278 17.5695 35.8783 17.571 35.5134V28.7558H22.1623V37.081C20.9881 37.4134 19.9738 38.1593 19.3066 39.181C18.6394 40.2027 18.3642 41.4313 18.532 42.64C18.6998 43.8486 19.2991 44.9559 20.2194 45.7572C21.1397 46.5586 22.3188 47 23.539 47C24.7593 47 25.9384 46.5586 26.8587 45.7572C27.779 44.9559 28.3783 43.8486 28.5461 42.64C28.7138 41.4313 28.4387 40.2027 27.7715 39.181C27.1043 38.1593 26.09 37.4134 24.9158 37.081V28.7558H29.507V35.5134C29.5086 35.8783 29.6546 36.2278 29.9132 36.4853C30.1718 36.7427 30.5218 36.8873 30.8867 36.8873H37.1395C37.3961 37.7908 37.8997 38.6048 38.5936 39.2378C39.2876 39.8708 40.1443 40.2977 41.0675 40.4705C41.9907 40.6434 42.9439 40.5552 43.8198 40.216C44.6956 39.8769 45.4596 39.3001 46.0256 38.5506C46.5917 37.8011 46.9375 36.9085 47.0241 35.9733C47.1107 35.038 46.9348 34.0971 46.516 33.2564C46.0972 32.4156 45.4523 31.7084 44.6536 31.2141C43.8549 30.7198 42.9342 30.4581 41.9949 30.4584ZM5.07731 37.8091C4.62328 37.8091 4.17945 37.6744 3.80194 37.4222C3.42443 37.1699 3.13019 36.8114 2.95644 36.3919C2.78269 35.9725 2.73723 35.5109 2.82581 35.0656C2.91439 34.6203 3.13302 34.2113 3.45407 33.8902C3.77511 33.5692 4.18415 33.3505 4.62946 33.2619C5.07476 33.1734 5.53633 33.2188 5.9558 33.3926C6.37527 33.5663 6.73379 33.8606 6.98603 34.2381C7.23828 34.6156 7.37291 35.0594 7.37291 35.5134C7.37136 36.1218 7.12901 36.7048 6.69883 37.135C6.26866 37.5651 5.68566 37.8075 5.07731 37.8091ZM25.8611 41.9423C25.8609 42.3941 25.7275 42.8358 25.4776 43.212C25.2276 43.5883 24.8721 43.8825 24.4557 44.0577C24.0393 44.2329 23.5805 44.2813 23.1367 44.1969C22.6929 44.1125 22.2838 43.8991 21.9608 43.5833C21.6377 43.2675 21.415 42.8635 21.3206 42.4217C21.2261 41.9799 21.2641 41.5201 21.4298 41.0998C21.5955 40.6796 21.8815 40.3175 22.252 40.059C22.6225 39.8005 23.061 39.6571 23.5126 39.6467C23.8183 39.6405 24.1221 39.6952 24.4064 39.8077C24.6907 39.9202 24.9497 40.0882 25.1684 40.3019C25.387 40.5156 25.5609 40.7708 25.6798 41.0524C25.7987 41.3341 25.8603 41.6366 25.8611 41.9423ZM9.83291 26.0022C8.03458 26.0266 6.29502 25.3623 4.97069 24.1455C3.64635 22.9286 2.8375 21.2514 2.7099 19.4574C2.5823 17.6634 3.14559 15.8886 4.28436 14.4966C5.42313 13.1045 7.05115 12.2007 8.83482 11.9703C9.18433 11.9219 9.50164 11.7403 9.72045 11.4635C9.93927 11.1867 10.0427 10.8361 10.009 10.4849C10.009 10.2676 9.97969 10.0504 9.97969 9.8273C9.98357 8.39024 10.4268 6.98873 11.2499 5.81077C12.0731 4.6328 13.2368 3.73473 14.5849 3.23701C15.933 2.73929 17.4011 2.66573 18.7922 3.0262C20.1834 3.38667 21.431 4.16392 22.3677 5.2537C22.5949 5.51987 22.9147 5.68978 23.2625 5.72902C23.6102 5.76827 23.9599 5.67391 24.2406 5.46506C25.6859 4.39959 27.4356 3.82734 29.2311 3.83289C31.2272 3.83547 33.1579 4.54422 34.6816 5.83366C36.2053 7.12311 37.2237 8.91008 37.5563 10.8782C37.6008 11.1551 37.7285 11.4119 37.9226 11.6143C38.1166 11.8167 38.3677 11.9552 38.6425 12.0114C40.3675 12.3459 41.9053 13.3131 42.954 14.723C44.0028 16.133 44.4867 17.8839 44.311 19.6323C44.1353 21.3807 43.3126 23.0004 42.0042 24.1734C40.6959 25.3465 38.9964 25.9883 37.2393 25.9729L9.83291 26.0022ZM41.9949 37.8091C41.5409 37.8091 41.097 37.6744 40.7195 37.4222C40.342 37.1699 40.0478 36.8114 39.874 36.3919C39.7003 35.9725 39.6548 35.5109 39.7434 35.0656C39.832 34.6203 40.0506 34.2113 40.3717 33.8902C40.6927 33.5692 41.1017 33.3505 41.547 33.2619C41.9923 33.1734 42.4539 33.2188 42.8734 33.3926C43.2929 33.5663 43.6514 33.8606 43.9036 34.2381C44.1559 34.6156 44.2905 35.0594 44.2905 35.5134C44.289 36.1218 44.0466 36.7048 43.6164 37.135C43.1863 37.5651 42.6033 37.8075 41.9949 37.8091Z" fill="#324894"/>
</svg>
