<svg width="48" height="47" viewBox="0 0 48 47" fill="none" xmlns="http://www.w3.org/2000/svg">
<path d="M47.0007 23.3176V31.4839C47.0007 31.9716 46.8069 32.4394 46.4621 32.7842C46.1172 33.1291 45.6495 33.3228 45.1618 33.3228C44.6741 33.3228 44.2063 33.1291 43.8615 32.7842C43.5166 32.4394 43.3229 31.9716 43.3229 31.4839V27.859L37.4831 33.6988C37.3129 33.87 37.1106 34.0058 36.8878 34.0986C36.6649 34.1913 36.426 34.2392 36.1847 34.2393H26.9256L14.6878 46.4595C14.3442 46.8038 13.8779 46.9976 13.3915 46.9982C12.905 46.9987 12.4383 46.806 12.0939 46.4624C11.7496 46.1189 11.5558 45.6526 11.5553 45.1661C11.5547 44.6797 11.7474 44.2129 12.091 43.8686L24.8693 31.1373C25.0384 30.9664 25.2396 30.8306 25.4615 30.7378C25.6833 30.645 25.9213 30.5971 26.1618 30.5968H35.4268L40.8436 25.18H36.9073C36.4383 25.1535 35.9973 24.9485 35.6747 24.6071C35.352 24.2657 35.1723 23.8138 35.1723 23.344C35.1723 22.8743 35.352 22.4224 35.6747 22.081C35.9973 21.7396 36.4383 21.5346 36.9073 21.5081H45.1676C45.6493 21.5096 46.1111 21.6999 46.4539 22.0383C46.7966 22.3767 46.993 22.836 47.0007 23.3176ZM45.1676 37.0124C44.681 37.0124 44.2141 37.2053 43.8694 37.5489C43.5247 37.8925 43.3303 38.3587 43.3287 38.8454V45.1611C43.3287 45.6488 43.5225 46.1165 43.8673 46.4614C44.2122 46.8063 44.6799 47 45.1676 47C45.6553 47 46.1231 46.8063 46.4679 46.4614C46.8128 46.1165 47.0065 45.6488 47.0065 45.1611V38.8278C47.0004 38.3442 46.8039 37.8824 46.4597 37.5426C46.1155 37.2029 45.6513 37.0123 45.1676 37.0124ZM37.8238 37.0124C37.3371 37.0124 36.8703 37.2053 36.5256 37.5489C36.1809 37.8925 35.9865 38.3587 35.9849 38.8454V45.1611C36.0114 45.6301 36.2164 46.0711 36.5578 46.3937C36.8992 46.7164 37.3511 46.8961 37.8209 46.8961C38.2906 46.8961 38.7425 46.7164 39.0839 46.3937C39.4253 46.0711 39.6303 45.6301 39.6568 45.1611V38.8278C39.6522 38.3447 39.457 37.883 39.1138 37.543C38.7705 37.2031 38.3069 37.0124 37.8238 37.0124ZM30.48 37.0124C29.9933 37.0124 29.5264 37.2053 29.1817 37.5489C28.8371 37.8925 28.6426 38.3587 28.6411 38.8454V45.1611C28.6676 45.6301 28.8726 46.0711 29.214 46.3937C29.5554 46.7164 30.0073 46.8961 30.477 46.8961C30.9468 46.8961 31.3987 46.7164 31.7401 46.3937C32.0815 46.0711 32.2864 45.6301 32.313 45.1611V38.8278C32.3083 38.3447 32.1132 37.883 31.7699 37.543C31.4267 37.2031 30.9631 37.0124 30.48 37.0124ZM23.1361 42.5937C22.6494 42.5937 22.1826 42.7866 21.8379 43.1302C21.4932 43.4738 21.2988 43.94 21.2972 44.4267V45.1611C21.3238 45.6301 21.5288 46.0711 21.8702 46.3937C22.2116 46.7164 22.6635 46.8961 23.1332 46.8961C23.6029 46.8961 24.0548 46.7164 24.3962 46.3937C24.7376 46.0711 24.9426 45.6301 24.9692 45.1611V44.4267C24.9692 43.9406 24.776 43.4743 24.4323 43.1306C24.0885 42.7868 23.6223 42.5937 23.1361 42.5937ZM19.3878 31.1373C19.8755 31.1373 20.3433 30.9436 20.6881 30.5987C21.033 30.2539 21.2267 29.7861 21.2267 29.2984V28.1528C26.9784 26.026 25.5919 17.5777 19.3878 17.4425C18.9204 17.416 18.4808 17.2117 18.1593 16.8714C17.8377 16.5311 17.6585 16.0806 17.6585 15.6124C17.6585 15.1443 17.8377 14.6938 18.1593 14.3535C18.4808 14.0132 18.9204 13.8089 19.3878 13.7824C19.7346 13.772 20.076 13.8692 20.3653 14.0607C20.6546 14.2521 20.8775 14.5284 21.0035 14.8516C21.0976 15.0734 21.2345 15.2745 21.4063 15.4434C21.5782 15.6124 21.7816 15.7458 22.005 15.836C22.2284 15.9263 22.4674 15.9717 22.7084 15.9697C22.9493 15.9676 23.1875 15.9181 23.4093 15.8239C23.6311 15.7298 23.8322 15.5929 24.0011 15.4211C24.1701 15.2492 24.3035 15.0458 24.3938 14.8224C24.484 14.599 24.5294 14.36 24.5274 14.119C24.5253 13.8781 24.4758 13.6399 24.3816 13.4181C24.0959 12.7243 23.6673 12.0985 23.1237 11.5812C22.5802 11.064 21.9338 10.6669 21.2267 10.4159V9.1763C21.2002 8.70733 20.9952 8.2663 20.6538 7.94368C20.3124 7.62105 19.8605 7.44131 19.3908 7.44131C18.9211 7.44131 18.4691 7.62105 18.1277 7.94368C17.7864 8.2663 17.5814 8.70733 17.5548 9.1763V10.4218C11.8031 12.5545 13.1779 20.9969 19.3878 21.1144C19.8583 21.141 20.3008 21.3467 20.6245 21.6892C20.9482 22.0316 21.1285 22.485 21.1285 22.9563C21.1285 23.4275 20.9482 23.8809 20.6245 24.2234C20.3008 24.5659 19.8583 24.7715 19.3878 24.7981C19.0166 24.7964 18.6536 24.6888 18.3414 24.488C18.0291 24.2871 17.7807 24.0014 17.6253 23.6642C17.4259 23.2201 17.0582 22.8735 16.6031 22.7005C16.1481 22.5275 15.643 22.5424 15.1989 22.7418C14.7548 22.9413 14.4082 23.309 14.2352 23.764C14.0622 24.219 14.0771 24.7242 14.2765 25.1682C14.5911 25.8543 15.0394 26.4706 15.5953 26.9811C16.1512 27.4916 16.8034 27.8859 17.5137 28.141V29.2808C17.5113 29.5268 17.5583 29.7707 17.6518 29.9982C17.7454 30.2257 17.8836 30.4321 18.0584 30.6052C18.2331 30.7783 18.4408 30.9146 18.6692 31.006C18.8975 31.0974 19.1419 31.142 19.3878 31.1373ZM13.0369 37.406C13.4658 37.405 13.8809 37.2542 14.2103 36.9795C14.5397 36.7048 14.7628 36.3236 14.8409 35.9019C14.9189 35.4801 14.8471 35.0443 14.6379 34.6699C14.4286 34.2955 14.095 34.0061 13.6949 33.8516C-2.29117 27.4008 2.00351 3.95924 19.2821 3.67136C22.9543 3.66093 26.5119 4.94885 29.3264 7.30754C32.1409 9.66623 34.0311 12.9439 34.663 16.5613C34.7668 17.0216 35.0436 17.4244 35.4361 17.6863C35.8285 17.9482 36.3067 18.0493 36.7716 17.9685C37.2365 17.8878 37.6525 17.6314 37.9337 17.2525C38.2148 16.8735 38.3396 16.401 38.2821 15.9326C37.4907 11.4956 35.1711 7.47564 31.7255 4.57025C19.3878 -6.01075 -0.052768 2.97811 0.000107634 19.2755C0.00841332 23.1749 1.19483 26.9808 3.4038 30.1941C5.61277 33.4074 8.74119 35.8783 12.3789 37.2826C12.589 37.3632 12.8119 37.405 13.0369 37.406Z" fill="#324894"/>
</svg>
