<svg width="36" height="43" viewBox="0 0 36 43" fill="none" xmlns="http://www.w3.org/2000/svg">
<path d="M18.0002 0L0.617188 6.45V19.5435C0.617188 30.401 8.02668 40.5275 18.0002 43C27.9737 40.5275 35.3831 30.401 35.3831 19.5435V6.45L18.0002 0ZM31.0374 19.5435C31.0374 28.1435 25.4966 36.0985 18.0002 38.528C10.5038 36.0985 4.96293 28.165 4.96293 19.5435V9.2665L18.0002 4.7085L31.0374 9.2665V19.5435Z" fill="#324894"/>
<path d="M14.5839 22.1253L11.9008 19.1441C11.4971 18.6955 10.791 18.7041 10.3983 19.1623L9.01697 20.7738C8.66882 21.18 8.702 21.7882 9.09229 22.1541L15.0205 27.7118C15.4089 28.076 16.0146 28.0719 16.3981 27.7026L27.3307 17.1749C27.7338 16.7867 27.7399 16.1432 27.3442 15.7475L25.9943 14.3976C25.6169 14.0202 25.0095 14.0057 24.6145 14.3648L15.9999 22.1963C15.5898 22.5691 14.9547 22.5373 14.5839 22.1253Z" fill="#324894"/>
</svg>
