<svg width="40" height="47" viewBox="0 0 40 47" fill="none" xmlns="http://www.w3.org/2000/svg">
<path d="M39.8933 12.7476V12.7006C39.8933 11.5257 39.8463 10.4213 39.8463 9.35805C39.8463 8.57905 39.5369 7.83196 38.986 7.28113C38.4352 6.73029 37.6881 6.42083 36.9091 6.42083C30.6705 6.42083 25.9357 4.6585 22.0057 0.822495C21.4582 0.294832 20.7275 0 19.9672 0C19.2069 0 18.4762 0.294832 17.9288 0.822495C14.0105 4.65263 9.27575 6.46196 3.03122 6.46196C2.25222 6.46196 1.50513 6.77141 0.954292 7.32225C0.403456 7.87308 0.0940004 8.62018 0.0940004 9.39917C0.0940004 10.4859 0.0940004 11.6021 0.0470049 12.7887C-0.058735 18.3107 -0.187973 25.1897 2.12068 31.4283C3.33424 34.7761 5.28579 37.8079 7.83064 40.2987C11.0247 43.2823 14.8349 45.5283 18.9921 46.8781C19.3157 46.9744 19.6536 47.0141 19.9907 46.9956C20.3164 46.9954 20.6399 46.9418 20.9483 46.837C25.1056 45.4847 28.9157 43.2368 32.1097 40.2517C34.6557 37.7641 36.6075 34.734 37.8196 31.3872C40.1283 25.1485 39.9991 18.2696 39.8933 12.7476ZM35.2643 30.4355C32.8029 37.009 27.8331 41.5323 20.0318 44.2346C19.9956 44.2463 19.9565 44.2463 19.9202 44.2346C12.1249 41.5323 7.1492 37.009 4.71718 30.4355C2.59064 24.6786 2.714 18.3694 2.81974 12.8122C2.81974 11.6373 2.86086 10.4624 2.86086 9.3698C2.86086 9.32462 2.87881 9.28129 2.91076 9.24934C2.94271 9.21739 2.98604 9.19944 3.03122 9.19944C10.0335 9.19944 15.3675 7.17276 19.8556 2.8198C19.872 2.80018 19.8928 2.78466 19.9162 2.77446C19.9397 2.76426 19.9652 2.75967 19.9907 2.76106C20.0125 2.76041 20.0341 2.76425 20.0544 2.77233C20.0746 2.78042 20.0929 2.79258 20.1082 2.80805C24.5728 7.16101 29.9185 9.18769 36.9209 9.18769C36.966 9.18769 37.0094 9.20564 37.0413 9.23759C37.0733 9.26954 37.0912 9.31287 37.0912 9.35805C37.0912 10.4507 37.0912 11.5668 37.1382 12.7535V12.8005C37.2439 18.3694 37.3673 24.6786 35.2408 30.4238L35.2643 30.4355Z" fill="#324894"/>
<path d="M28.5322 18.9158H24.1028V14.4864C24.1028 14.1219 23.958 13.7722 23.7002 13.5144C23.4424 13.2566 23.0928 13.1118 22.7282 13.1118H17.2297C16.8693 13.118 16.5256 13.2655 16.2729 13.5226C16.0202 13.7798 15.8786 14.1259 15.8786 14.4864V18.9158H11.4258C11.2445 18.9158 11.065 18.9515 10.8975 19.0208C10.73 19.0902 10.5778 19.1919 10.4496 19.3201C10.3214 19.4483 10.2198 19.6005 10.1504 19.768C10.081 19.9355 10.0453 20.115 10.0453 20.2963V25.7889C10.0469 26.154 10.193 26.5036 10.4517 26.7612C10.7104 27.0188 11.0607 27.1635 11.4258 27.1635H15.8786V31.5928C15.8786 31.9579 16.0233 32.3082 16.2809 32.5669C16.5385 32.8256 16.8881 32.9717 17.2532 32.9733H22.7517C23.1127 32.9656 23.4564 32.8168 23.7089 32.5587C23.9615 32.3006 24.1029 31.9539 24.1028 31.5928V27.1635H28.5322C28.8967 27.1635 29.2464 27.0186 29.5042 26.7609C29.762 26.5031 29.9068 26.1534 29.9068 25.7889V20.2963C29.9068 19.9311 29.7621 19.5809 29.5045 19.3222C29.2469 19.0634 28.8973 18.9173 28.5322 18.9158ZM27.1575 24.4084H22.7282C22.5469 24.4084 22.3674 24.4441 22.1999 24.5134C22.0324 24.5828 21.8802 24.6845 21.7521 24.8127C21.6239 24.9409 21.5222 25.0931 21.4528 25.2606C21.3834 25.4281 21.3477 25.6076 21.3477 25.7889V30.2182H18.6102V25.7889C18.6102 25.6076 18.5745 25.4281 18.5051 25.2606C18.4358 25.0931 18.3341 24.9409 18.2059 24.8127C18.0777 24.6845 17.9255 24.5828 17.758 24.5134C17.5905 24.4441 17.411 24.4084 17.2297 24.4084H12.8004V21.6709H17.2297C17.5949 21.6709 17.9451 21.5262 18.2038 21.2686C18.4626 21.011 18.6087 20.6614 18.6102 20.2963V15.8611H21.3477V20.2963C21.3493 20.6614 21.4954 21.011 21.7541 21.2686C22.0129 21.5262 22.3631 21.6709 22.7282 21.6709H27.1575V24.4084Z" fill="#324894"/>
</svg>
