<svg width="46" height="50" viewBox="0 0 46 50" fill="none" xmlns="http://www.w3.org/2000/svg">
<path d="M22.3631 9.02377H22.5131V8.87377V7.25562V7.10562H22.3631L5.05241 7.10562L5.05224 7.10562C3.96808 7.10687 2.92955 7.55031 2.16424 8.33724C1.39907 9.12402 0.969378 10.1899 0.968164 11.3008V11.301L0.968164 36.3825L0.968164 36.3826C0.969378 37.4936 1.39907 38.5595 2.16424 39.3463C2.92955 40.1332 3.96808 40.5766 5.05224 40.5779H5.05241H14.65L13.0889 44.3233H9.77351C9.10631 44.3233 8.4673 44.5959 7.99682 45.0796C7.52648 45.5633 7.26296 46.2183 7.26296 46.9005C7.26296 47.5827 7.52648 48.2378 7.99682 48.7214C8.4673 49.2052 9.10631 49.4778 9.77351 49.4778H33.379C34.0462 49.4778 34.6852 49.2052 35.1557 48.7214C35.626 48.2378 35.8896 47.5827 35.8896 46.9005C35.8896 46.2183 35.626 45.5633 35.1557 45.0796C34.6852 44.5959 34.0462 44.3233 33.379 44.3233H30.0636L28.5025 40.5779H38.1001H38.1003C39.1844 40.5766 40.223 40.1332 40.9883 39.3463C41.7535 38.5595 42.1832 37.4936 42.1844 36.3826V36.3825V22.6281V22.4781H42.0344H40.4607H40.3107V22.6281V32.1871H2.84186L2.84186 11.3012C2.84186 11.3011 2.84186 11.3011 2.84186 11.3011C2.84255 10.696 3.07666 10.1167 3.49156 9.69007C3.90633 9.26359 4.46777 9.02448 5.05249 9.02377C5.05252 9.02377 5.05255 9.02377 5.05259 9.02377L22.3631 9.02377ZM34.0159 46.9005C34.0156 47.0766 33.9475 47.2445 33.8276 47.3678C33.7078 47.4909 33.5464 47.5594 33.3788 47.5596H9.77351C9.60598 47.5596 9.44443 47.4912 9.32466 47.368C9.20475 47.2447 9.13666 47.0766 9.13666 46.9005C9.13666 46.7244 9.20475 46.5563 9.32466 46.433C9.44443 46.3098 9.60598 46.2414 9.77351 46.2414H33.3788C33.5464 46.2416 33.7078 46.3101 33.8276 46.4333C33.9475 46.5565 34.0156 46.7245 34.0159 46.9005ZM26.4654 40.5779L28.0265 44.3233H15.1261L16.6871 40.5779H26.4654ZM38.0999 38.6597H5.05259C4.46784 38.659 3.90635 38.4199 3.49156 37.9934C3.07666 37.5668 2.84255 36.9875 2.84186 36.3824C2.84186 36.3824 2.84186 36.3824 2.84186 36.3823L2.84186 34.1052H40.3107V36.3823C40.31 36.9874 40.0759 37.5668 39.661 37.9934C39.2462 38.4199 38.6847 38.659 38.0999 38.6597Z" fill="#324894" stroke="#324894" stroke-width="0.3"/>
<path d="M20.7891 35.4235H20.6391V35.5735V37.1915V37.3415H20.7891H22.3627H22.5127V37.1915V35.5735V35.4235H22.3627H20.7891Z" fill="#324894" stroke="#324894" stroke-width="0.3"/>
<mask id="path-3-outside-1" maskUnits="userSpaceOnUse" x="22.3613" y="0" width="23" height="24" fill="black">
<rect fill="white" x="22.3613" width="23" height="24"/>
<path d="M44.6963 10.2068C44.8196 10.0981 44.9072 9.95271 44.947 9.79071C44.9868 9.62871 44.9768 9.45802 44.9185 9.30208L43.9771 6.78544C43.9188 6.62953 43.8149 6.496 43.6798 6.40319C43.5447 6.31039 43.385 6.26286 43.2226 6.26713L41.0806 6.32326L40.1394 5.30473L40.3036 3.10798C40.316 2.94139 40.278 2.77493 40.1947 2.63146C40.1115 2.48799 39.987 2.37454 39.8385 2.30669L37.442 1.2116C37.2935 1.14374 37.1283 1.12481 36.9689 1.15741C36.8095 1.19 36.6639 1.27253 36.552 1.39365L35.076 2.99077L33.71 2.95496L32.3152 1.2823C32.2094 1.15551 32.0681 1.0655 31.9106 1.02461C31.753 0.983726 31.5871 0.993968 31.4355 1.05393L28.9879 2.0219C28.8362 2.08188 28.7064 2.18865 28.6161 2.32756C28.5259 2.46647 28.4796 2.6307 28.4838 2.7977L28.5384 5.00011L27.5478 5.96807L25.4114 5.79918C25.2494 5.78638 25.0876 5.82547 24.948 5.91107C24.8085 5.99666 24.6981 6.12458 24.6322 6.27724L23.5672 8.74159C23.5012 8.89425 23.4828 9.06417 23.5145 9.22801C23.5462 9.39185 23.6264 9.54159 23.7442 9.65666L25.2974 11.1744L25.2625 12.579L23.636 14.0131C23.5126 14.1219 23.4251 14.2673 23.3853 14.4293C23.3455 14.5913 23.3555 14.762 23.4138 14.9179L24.3552 17.4345C24.414 17.5901 24.5179 17.7233 24.6529 17.816C24.7879 17.9088 24.9474 17.9565 25.1097 17.9528L27.2517 17.8967L28.1929 18.9152L28.0287 21.112C28.0163 21.2786 28.0543 21.445 28.1376 21.5885C28.2208 21.732 28.3452 21.8454 28.4937 21.9133L30.89 23.0084C31.0385 23.0762 31.2037 23.0952 31.3631 23.0626C31.5225 23.03 31.6681 22.9474 31.78 22.8263L33.2559 21.2292L34.622 21.265L36.0168 22.9377C36.1226 23.0645 36.2639 23.1545 36.4214 23.1954C36.5789 23.2362 36.7449 23.226 36.8965 23.166L39.3441 22.1981C39.4957 22.1381 39.6256 22.0313 39.7159 21.8924C39.8061 21.7535 39.8523 21.5893 39.8482 21.4223L39.7936 19.2199L40.7841 18.2519L42.9208 18.4208C43.0828 18.4336 43.2447 18.3945 43.3843 18.3089C43.5238 18.2233 43.6341 18.0954 43.7001 17.9427L44.7651 15.4788C44.8311 15.3261 44.8495 15.1562 44.8178 14.9924C44.7861 14.8285 44.7059 14.6788 44.5881 14.5637L43.0348 13.046L43.0698 11.6413L44.6963 10.2068ZM41.6973 13.9709L43.1015 15.3431L42.4871 16.7634L40.5558 16.6111C40.446 16.6023 40.3356 16.6174 40.2319 16.6553C40.1281 16.6933 40.0333 16.7533 39.9535 16.8314L38.456 18.2945C38.3762 18.3724 38.3132 18.4667 38.2711 18.5712C38.229 18.6757 38.2086 18.7882 38.2113 18.9013L38.2605 20.8924L36.8495 21.4505L35.5886 19.9384C35.5169 19.8525 35.4285 19.783 35.329 19.7344C35.2296 19.6858 35.1214 19.6592 35.0113 19.6564L32.9458 19.6021C32.9391 19.6021 32.9325 19.6021 32.9262 19.6021C32.8194 19.6021 32.7138 19.6244 32.6158 19.6677C32.5177 19.711 32.4292 19.7743 32.3557 19.8539L31.0213 21.2978L29.6406 20.666L29.7887 18.6802C29.7971 18.5673 29.7824 18.4539 29.7455 18.3472C29.7086 18.2406 29.6504 18.143 29.5746 18.061L28.1515 16.521C28.0759 16.4387 27.9843 16.3738 27.8826 16.3304C27.7809 16.2871 27.6714 16.2664 27.5614 16.2696L25.625 16.3201L25.0822 14.8692L26.5527 13.5728C26.6362 13.4991 26.7039 13.4082 26.7511 13.306C26.7984 13.2037 26.8243 13.0924 26.8271 12.9792L26.8799 10.8554C26.8827 10.7423 26.8623 10.6299 26.8202 10.5253C26.778 10.4208 26.7151 10.3265 26.6353 10.2486L25.2308 8.87701L25.8452 7.45657L27.7765 7.60888C27.8863 7.61742 27.9966 7.60223 28.1003 7.56429C28.204 7.52635 28.2989 7.46651 28.3787 7.38861L29.8763 5.92549C29.9561 5.84754 30.019 5.75326 30.0612 5.64874C30.1033 5.54423 30.1237 5.43179 30.1209 5.31869L30.0718 3.32754L31.4828 2.76948L32.7437 4.28155C32.8153 4.36733 32.9036 4.43672 33.003 4.48525C33.1023 4.53378 33.2104 4.56037 33.3203 4.56331L35.3858 4.61752C35.4958 4.62108 35.6054 4.6005 35.7072 4.55715C35.8089 4.5138 35.9005 4.44867 35.9759 4.3661L37.3103 2.9222L38.6917 3.55399L38.5436 5.53977C38.5352 5.65264 38.5499 5.76608 38.5867 5.87275C38.6236 5.97942 38.6819 6.07694 38.7577 6.15901L40.1807 7.69899C40.2564 7.78122 40.348 7.84611 40.4497 7.88943C40.5514 7.93275 40.6608 7.95354 40.7709 7.95041L42.7073 7.89985L43.25 9.35073L41.7799 10.6466C41.6963 10.7203 41.6287 10.8112 41.5814 10.9134C41.5342 11.0156 41.5083 11.127 41.5055 11.2401L41.4527 13.364C41.4499 13.4771 41.4702 13.5895 41.5124 13.6941C41.5545 13.7986 41.6175 13.8929 41.6973 13.9709Z"/>
</mask>
<path d="M44.6963 10.2068C44.8196 10.0981 44.9072 9.95271 44.947 9.79071C44.9868 9.62871 44.9768 9.45802 44.9185 9.30208L43.9771 6.78544C43.9188 6.62953 43.8149 6.496 43.6798 6.40319C43.5447 6.31039 43.385 6.26286 43.2226 6.26713L41.0806 6.32326L40.1394 5.30473L40.3036 3.10798C40.316 2.94139 40.278 2.77493 40.1947 2.63146C40.1115 2.48799 39.987 2.37454 39.8385 2.30669L37.442 1.2116C37.2935 1.14374 37.1283 1.12481 36.9689 1.15741C36.8095 1.19 36.6639 1.27253 36.552 1.39365L35.076 2.99077L33.71 2.95496L32.3152 1.2823C32.2094 1.15551 32.0681 1.0655 31.9106 1.02461C31.753 0.983726 31.5871 0.993968 31.4355 1.05393L28.9879 2.0219C28.8362 2.08188 28.7064 2.18865 28.6161 2.32756C28.5259 2.46647 28.4796 2.6307 28.4838 2.7977L28.5384 5.00011L27.5478 5.96807L25.4114 5.79918C25.2494 5.78638 25.0876 5.82547 24.948 5.91107C24.8085 5.99666 24.6981 6.12458 24.6322 6.27724L23.5672 8.74159C23.5012 8.89425 23.4828 9.06417 23.5145 9.22801C23.5462 9.39185 23.6264 9.54159 23.7442 9.65666L25.2974 11.1744L25.2625 12.579L23.636 14.0131C23.5126 14.1219 23.4251 14.2673 23.3853 14.4293C23.3455 14.5913 23.3555 14.762 23.4138 14.9179L24.3552 17.4345C24.414 17.5901 24.5179 17.7233 24.6529 17.816C24.7879 17.9088 24.9474 17.9565 25.1097 17.9528L27.2517 17.8967L28.1929 18.9152L28.0287 21.112C28.0163 21.2786 28.0543 21.445 28.1376 21.5885C28.2208 21.732 28.3452 21.8454 28.4937 21.9133L30.89 23.0084C31.0385 23.0762 31.2037 23.0952 31.3631 23.0626C31.5225 23.03 31.6681 22.9474 31.78 22.8263L33.2559 21.2292L34.622 21.265L36.0168 22.9377C36.1226 23.0645 36.2639 23.1545 36.4214 23.1954C36.5789 23.2362 36.7449 23.226 36.8965 23.166L39.3441 22.1981C39.4957 22.1381 39.6256 22.0313 39.7159 21.8924C39.8061 21.7535 39.8523 21.5893 39.8482 21.4223L39.7936 19.2199L40.7841 18.2519L42.9208 18.4208C43.0828 18.4336 43.2447 18.3945 43.3843 18.3089C43.5238 18.2233 43.6341 18.0954 43.7001 17.9427L44.7651 15.4788C44.8311 15.3261 44.8495 15.1562 44.8178 14.9924C44.7861 14.8285 44.7059 14.6788 44.5881 14.5637L43.0348 13.046L43.0698 11.6413L44.6963 10.2068ZM41.6973 13.9709L43.1015 15.3431L42.4871 16.7634L40.5558 16.6111C40.446 16.6023 40.3356 16.6174 40.2319 16.6553C40.1281 16.6933 40.0333 16.7533 39.9535 16.8314L38.456 18.2945C38.3762 18.3724 38.3132 18.4667 38.2711 18.5712C38.229 18.6757 38.2086 18.7882 38.2113 18.9013L38.2605 20.8924L36.8495 21.4505L35.5886 19.9384C35.5169 19.8525 35.4285 19.783 35.329 19.7344C35.2296 19.6858 35.1214 19.6592 35.0113 19.6564L32.9458 19.6021C32.9391 19.6021 32.9325 19.6021 32.9262 19.6021C32.8194 19.6021 32.7138 19.6244 32.6158 19.6677C32.5177 19.711 32.4292 19.7743 32.3557 19.8539L31.0213 21.2978L29.6406 20.666L29.7887 18.6802C29.7971 18.5673 29.7824 18.4539 29.7455 18.3472C29.7086 18.2406 29.6504 18.143 29.5746 18.061L28.1515 16.521C28.0759 16.4387 27.9843 16.3738 27.8826 16.3304C27.7809 16.2871 27.6714 16.2664 27.5614 16.2696L25.625 16.3201L25.0822 14.8692L26.5527 13.5728C26.6362 13.4991 26.7039 13.4082 26.7511 13.306C26.7984 13.2037 26.8243 13.0924 26.8271 12.9792L26.8799 10.8554C26.8827 10.7423 26.8623 10.6299 26.8202 10.5253C26.778 10.4208 26.7151 10.3265 26.6353 10.2486L25.2308 8.87701L25.8452 7.45657L27.7765 7.60888C27.8863 7.61742 27.9966 7.60223 28.1003 7.56429C28.204 7.52635 28.2989 7.46651 28.3787 7.38861L29.8763 5.92549C29.9561 5.84754 30.019 5.75326 30.0612 5.64874C30.1033 5.54423 30.1237 5.43179 30.1209 5.31869L30.0718 3.32754L31.4828 2.76948L32.7437 4.28155C32.8153 4.36733 32.9036 4.43672 33.003 4.48525C33.1023 4.53378 33.2104 4.56037 33.3203 4.56331L35.3858 4.61752C35.4958 4.62108 35.6054 4.6005 35.7072 4.55715C35.8089 4.5138 35.9005 4.44867 35.9759 4.3661L37.3103 2.9222L38.6917 3.55399L38.5436 5.53977C38.5352 5.65264 38.5499 5.76608 38.5867 5.87275C38.6236 5.97942 38.6819 6.07694 38.7577 6.15901L40.1807 7.69899C40.2564 7.78122 40.348 7.84611 40.4497 7.88943C40.5514 7.93275 40.6608 7.95354 40.7709 7.95041L42.7073 7.89985L43.25 9.35073L41.7799 10.6466C41.6963 10.7203 41.6287 10.8112 41.5814 10.9134C41.5342 11.0156 41.5083 11.127 41.5055 11.2401L41.4527 13.364C41.4499 13.4771 41.4702 13.5895 41.5124 13.6941C41.5545 13.7986 41.6175 13.8929 41.6973 13.9709Z" fill="#324894"/>
<path d="M44.6963 10.2068C44.8196 10.0981 44.9072 9.95271 44.947 9.79071C44.9868 9.62871 44.9768 9.45802 44.9185 9.30208L43.9771 6.78544C43.9188 6.62953 43.8149 6.496 43.6798 6.40319C43.5447 6.31039 43.385 6.26286 43.2226 6.26713L41.0806 6.32326L40.1394 5.30473L40.3036 3.10798C40.316 2.94139 40.278 2.77493 40.1947 2.63146C40.1115 2.48799 39.987 2.37454 39.8385 2.30669L37.442 1.2116C37.2935 1.14374 37.1283 1.12481 36.9689 1.15741C36.8095 1.19 36.6639 1.27253 36.552 1.39365L35.076 2.99077L33.71 2.95496L32.3152 1.2823C32.2094 1.15551 32.0681 1.0655 31.9106 1.02461C31.753 0.983726 31.5871 0.993968 31.4355 1.05393L28.9879 2.0219C28.8362 2.08188 28.7064 2.18865 28.6161 2.32756C28.5259 2.46647 28.4796 2.6307 28.4838 2.7977L28.5384 5.00011L27.5478 5.96807L25.4114 5.79918C25.2494 5.78638 25.0876 5.82547 24.948 5.91107C24.8085 5.99666 24.6981 6.12458 24.6322 6.27724L23.5672 8.74159C23.5012 8.89425 23.4828 9.06417 23.5145 9.22801C23.5462 9.39185 23.6264 9.54159 23.7442 9.65666L25.2974 11.1744L25.2625 12.579L23.636 14.0131C23.5126 14.1219 23.4251 14.2673 23.3853 14.4293C23.3455 14.5913 23.3555 14.762 23.4138 14.9179L24.3552 17.4345C24.414 17.5901 24.5179 17.7233 24.6529 17.816C24.7879 17.9088 24.9474 17.9565 25.1097 17.9528L27.2517 17.8967L28.1929 18.9152L28.0287 21.112C28.0163 21.2786 28.0543 21.445 28.1376 21.5885C28.2208 21.732 28.3452 21.8454 28.4937 21.9133L30.89 23.0084C31.0385 23.0762 31.2037 23.0952 31.3631 23.0626C31.5225 23.03 31.6681 22.9474 31.78 22.8263L33.2559 21.2292L34.622 21.265L36.0168 22.9377C36.1226 23.0645 36.2639 23.1545 36.4214 23.1954C36.5789 23.2362 36.7449 23.226 36.8965 23.166L39.3441 22.1981C39.4957 22.1381 39.6256 22.0313 39.7159 21.8924C39.8061 21.7535 39.8523 21.5893 39.8482 21.4223L39.7936 19.2199L40.7841 18.2519L42.9208 18.4208C43.0828 18.4336 43.2447 18.3945 43.3843 18.3089C43.5238 18.2233 43.6341 18.0954 43.7001 17.9427L44.7651 15.4788C44.8311 15.3261 44.8495 15.1562 44.8178 14.9924C44.7861 14.8285 44.7059 14.6788 44.5881 14.5637L43.0348 13.046L43.0698 11.6413L44.6963 10.2068ZM41.6973 13.9709L43.1015 15.3431L42.4871 16.7634L40.5558 16.6111C40.446 16.6023 40.3356 16.6174 40.2319 16.6553C40.1281 16.6933 40.0333 16.7533 39.9535 16.8314L38.456 18.2945C38.3762 18.3724 38.3132 18.4667 38.2711 18.5712C38.229 18.6757 38.2086 18.7882 38.2113 18.9013L38.2605 20.8924L36.8495 21.4505L35.5886 19.9384C35.5169 19.8525 35.4285 19.783 35.329 19.7344C35.2296 19.6858 35.1214 19.6592 35.0113 19.6564L32.9458 19.6021C32.9391 19.6021 32.9325 19.6021 32.9262 19.6021C32.8194 19.6021 32.7138 19.6244 32.6158 19.6677C32.5177 19.711 32.4292 19.7743 32.3557 19.8539L31.0213 21.2978L29.6406 20.666L29.7887 18.6802C29.7971 18.5673 29.7824 18.4539 29.7455 18.3472C29.7086 18.2406 29.6504 18.143 29.5746 18.061L28.1515 16.521C28.0759 16.4387 27.9843 16.3738 27.8826 16.3304C27.7809 16.2871 27.6714 16.2664 27.5614 16.2696L25.625 16.3201L25.0822 14.8692L26.5527 13.5728C26.6362 13.4991 26.7039 13.4082 26.7511 13.306C26.7984 13.2037 26.8243 13.0924 26.8271 12.9792L26.8799 10.8554C26.8827 10.7423 26.8623 10.6299 26.8202 10.5253C26.778 10.4208 26.7151 10.3265 26.6353 10.2486L25.2308 8.87701L25.8452 7.45657L27.7765 7.60888C27.8863 7.61742 27.9966 7.60223 28.1003 7.56429C28.204 7.52635 28.2989 7.46651 28.3787 7.38861L29.8763 5.92549C29.9561 5.84754 30.019 5.75326 30.0612 5.64874C30.1033 5.54423 30.1237 5.43179 30.1209 5.31869L30.0718 3.32754L31.4828 2.76948L32.7437 4.28155C32.8153 4.36733 32.9036 4.43672 33.003 4.48525C33.1023 4.53378 33.2104 4.56037 33.3203 4.56331L35.3858 4.61752C35.4958 4.62108 35.6054 4.6005 35.7072 4.55715C35.8089 4.5138 35.9005 4.44867 35.9759 4.3661L37.3103 2.9222L38.6917 3.55399L38.5436 5.53977C38.5352 5.65264 38.5499 5.76608 38.5867 5.87275C38.6236 5.97942 38.6819 6.07694 38.7577 6.15901L40.1807 7.69899C40.2564 7.78122 40.348 7.84611 40.4497 7.88943C40.5514 7.93275 40.6608 7.95354 40.7709 7.95041L42.7073 7.89985L43.25 9.35073L41.7799 10.6466C41.6963 10.7203 41.6287 10.8112 41.5814 10.9134C41.5342 11.0156 41.5083 11.127 41.5055 11.2401L41.4527 13.364C41.4499 13.4771 41.4702 13.5895 41.5124 13.6941C41.5545 13.7986 41.6175 13.8929 41.6973 13.9709Z" stroke="#324894" stroke-width="0.6" mask="url(#path-3-outside-1)"/>
<path d="M32.1004 6.59552L32.1002 6.59559C31.0382 7.01562 30.1218 7.74978 29.4665 8.70455C28.8112 9.65928 28.4463 10.7919 28.4173 11.9593C28.3883 13.1266 28.6966 14.2769 29.3036 15.2646C29.9106 16.2524 30.7893 17.0336 31.829 17.5088C32.8688 17.9839 34.0225 18.1315 35.1442 17.9325C36.2658 17.7336 37.3043 17.1972 38.1285 16.3918C38.9527 15.5866 39.5257 14.5486 39.7756 13.4093C40.0256 12.2701 39.9414 11.0803 39.5336 9.99014L39.5336 9.98998C38.9853 8.52929 37.8955 7.35055 36.5017 6.71362C35.1079 6.07662 33.5248 6.03411 32.1004 6.59552ZM35.5564 15.8351C34.8414 16.1179 34.061 16.1763 33.3139 16.0031C32.5667 15.8298 31.8856 15.4325 31.3571 14.8606C30.8285 14.2887 30.4763 13.5679 30.3456 12.7893C30.2149 12.0107 30.3117 11.2098 30.6236 10.4881C30.9355 9.76637 31.4483 9.15664 32.0964 8.73549C32.7444 8.31438 33.4989 8.10057 34.2645 8.12061C35.0301 8.14066 35.7731 8.39368 36.3995 8.84823C37.026 9.30278 37.5079 9.9386 37.7837 10.6757C38.1524 11.6645 38.1246 12.7635 37.7064 13.7311C37.2883 14.6986 36.5146 15.4548 35.5564 15.8351Z" fill="#324894" stroke="#324894" stroke-width="0.3"/>
<path d="M8.86412 16.497L8.96583 16.3924L8.86412 16.2878L7.16158 14.5373L8.86412 12.7868L8.96583 12.6822L8.86412 12.5776L7.75131 11.4334L7.64378 11.3228L7.53625 11.4334L5.17568 13.8606C5.17568 13.8606 5.17568 13.8606 5.17568 13.8606C5.08889 13.9498 5.02025 14.0556 4.9735 14.1716C4.92675 14.2877 4.90273 14.4119 4.90273 14.5373C4.90273 14.6627 4.92675 14.7869 4.9735 14.903C5.02025 15.019 5.08889 15.1247 5.17568 15.214L7.53625 17.6412L7.64378 17.7518L7.75131 17.6412L8.86412 16.497Z" fill="#324894" stroke="#324894" stroke-width="0.3"/>
<path d="M14.9438 17.6412L15.0513 17.7518L15.1588 17.6412L17.5194 15.214C17.5194 15.214 17.5194 15.214 17.5194 15.214C17.6062 15.1247 17.6748 15.019 17.7216 14.903C17.7683 14.7869 17.7923 14.6627 17.7923 14.5373C17.7923 14.4119 17.7683 14.2877 17.7216 14.1716C17.6748 14.0556 17.6062 13.9498 17.5194 13.8606L15.1588 11.4334L15.0513 11.3228L14.9438 11.4334L13.8309 12.5776L13.7292 12.6822L13.8309 12.7868L15.5335 14.5373L13.8309 16.2878L13.7292 16.3924L13.8309 16.497L14.9438 17.6412Z" fill="#324894" stroke="#324894" stroke-width="0.3"/>
<path d="M9.65455 17.5484L9.61904 17.6941L9.7643 17.7315L11.2908 18.1248L11.4361 18.1622L11.4716 18.0164L13.0483 11.5447L13.0838 11.3989L12.9386 11.3615L11.4121 10.9683L11.2668 10.9309L11.2313 11.0766L9.65455 17.5484Z" fill="#324894" stroke="#324894" stroke-width="0.3"/>
<path d="M5.05273 19.2418H4.90273V19.3918V21.01V21.16H5.05273H6.62646H6.77646V21.01V19.3918V19.2418H6.62646H5.05273Z" fill="#324894" stroke="#324894" stroke-width="0.3"/>
<path d="M8.2002 19.2418H8.0502V19.3918V21.01V21.16H8.2002H23.1503H23.3003V21.01V19.3918V19.2418H23.1503H8.2002Z" fill="#324894" stroke="#324894" stroke-width="0.3"/>
<path d="M5.05273 22.4782H4.90273V22.6282V24.2463V24.3963H5.05273H6.62646H6.77646V24.2463V22.6282V22.4782H6.62646H5.05273Z" fill="#324894" stroke="#324894" stroke-width="0.3"/>
<path d="M8.2002 22.4782H8.0502V22.6282V24.2463V24.3963H8.2002H25.5109H25.6609V24.2463V22.6282V22.4782H25.5109H8.2002Z" fill="#324894" stroke="#324894" stroke-width="0.3"/>
<path d="M5.05273 25.7144H4.90273V25.8644V27.4825V27.6325H5.05273H6.62646H6.77646V27.4825V25.8644V25.7144H6.62646H5.05273Z" fill="#324894" stroke="#324894" stroke-width="0.3"/>
<path d="M8.2002 25.7144H8.0502V25.8644V27.4825V27.6325H8.2002H27.8714H28.0214V27.4825V25.8644V25.7144H27.8714H8.2002Z" fill="#324894" stroke="#324894" stroke-width="0.3"/>
<path d="M5.05273 28.9507H4.90273V29.1007V30.7188V30.8687H5.05273H6.62646H6.77646V30.7188V29.1007V28.9507H6.62646H5.05273Z" fill="#324894" stroke="#324894" stroke-width="0.3"/>
<path d="M8.2002 28.9507H8.0502V29.1007V30.7188V30.8687H8.2002H31.8057H31.9557V30.7188V29.1007V28.9507H31.8057H8.2002Z" fill="#324894" stroke="#324894" stroke-width="0.3"/>
<path d="M33.3789 28.9507H33.2289V29.1007V30.7188V30.8687H33.3789H34.9526H35.1026V30.7188V29.1007V28.9507H34.9526H33.3789Z" fill="#324894" stroke="#324894" stroke-width="0.3"/>
<path d="M32.5928 25.7144H32.4428V25.8644V27.4825V27.6325H32.5928H34.1665H34.3165V27.4825V25.8644V25.7144H34.1665H32.5928Z" fill="#324894" stroke="#324894" stroke-width="0.3"/>
<path d="M29.4443 25.7144H29.2943V25.8644V27.4825V27.6325H29.4443H31.0181H31.1681V27.4825V25.8644V25.7144H31.0181H29.4443Z" fill="#324894" stroke="#324894" stroke-width="0.3"/>
<path d="M36.5264 28.9507H36.3764V29.1007V30.7188V30.8687H36.5264H38.1H38.25V30.7188V29.1007V28.9507H38.1H36.5264Z" fill="#324894" stroke="#324894" stroke-width="0.3"/>
</svg>
