<svg width="66" height="50" viewBox="0 0 66 50" fill="none" xmlns="http://www.w3.org/2000/svg">
<mask id="path-1-outside-1" maskUnits="userSpaceOnUse" x="0" y="0" width="66" height="50" fill="black">
<rect fill="white" width="66" height="50"/>
<path d="M62.1606 36.484L58.2874 35.3461C58.1202 35.297 58.0034 35.1378 58.0034 34.9589V33.6296C58.3185 33.4051 58.6191 33.1538 58.9001 32.8734C60.2618 31.5146 61.0117 29.692 61.0117 27.7413V25.9069L61.3862 25.1368C61.7973 24.2914 62.0145 23.345 62.0145 22.3999V17.4304C62.0145 16.8979 61.5946 16.4661 61.0766 16.4661H52.0518C48.7702 16.4661 46.1002 19.2115 46.1002 22.5859V22.6433C46.1002 23.4292 46.2809 24.2162 46.6226 24.919L47.1029 25.9067V27.4818C47.1029 29.978 48.2992 32.2177 50.1113 33.5654L50.1115 34.9587C50.1115 35.1735 50.1115 35.2625 49.3371 35.4901L47.4472 36.0453L41.9801 34.0012C41.9998 33.7359 41.9127 33.4661 41.7245 33.2629L39.9775 31.3756V28.2075C40.1622 28.051 40.3443 27.8903 40.5207 27.7203C42.7246 25.5962 43.9886 22.5973 43.9886 19.4926V16.9624C44.6541 15.4734 44.9913 13.8977 44.9913 12.2749V1.96433C44.9913 1.43176 44.5714 1 44.0535 1H30.0149C25.0744 1 21.0551 5.13297 21.0551 10.2129V12.2752C21.0551 13.8979 21.3923 15.4736 22.0578 16.9627V19.1396C22.0578 22.7444 23.6166 25.992 26.0689 28.133V31.3757L24.3219 33.263C24.1337 33.4663 24.0467 33.736 24.0663 34.0013L18.2961 36.1587C17.878 36.315 17.4895 36.5268 17.1367 36.7833L16.2306 36.3175C18.9278 35.1103 19.7823 33.4124 19.8233 33.3281C19.9553 33.0566 19.9553 32.737 19.8233 32.4656C19.1472 31.0751 19.0653 28.5266 18.9995 26.4789C18.9776 25.7972 18.9569 25.1531 18.9172 24.5797C18.5975 19.9543 15.1778 16.4661 10.9625 16.4661C6.74728 16.4661 3.32745 19.9541 3.00784 24.5797C2.9682 25.1533 2.94744 25.7973 2.92556 26.4792C2.85978 28.5267 2.77775 31.075 2.10176 32.4654C1.96972 32.7369 1.96972 33.0565 2.10176 33.3279C2.14278 33.4123 2.99546 35.1067 5.69804 36.3153L3.18127 37.6091C1.8358 38.3014 1 39.692 1 41.2386V48.3629C1 48.8955 1.4199 49.3272 1.93783 49.3272C2.45577 49.3272 2.87566 48.8955 2.87566 48.3629V41.2386C2.87566 40.427 3.31419 39.6974 4.02007 39.3344L7.15405 37.7232L8.24419 38.7884C9.00646 39.5333 9.9843 39.9055 10.9625 39.9055C11.9405 39.9055 12.9188 39.533 13.6809 38.7884L14.7709 37.7233L15.7927 38.2487C15.3116 39.0403 15.0385 39.9687 15.0385 40.9411V48.3632C15.0385 48.8957 15.4584 49.3275 15.9763 49.3275C16.4942 49.3275 16.9141 48.8957 16.9141 48.3632V40.9411C16.9141 39.6173 17.727 38.4238 18.9371 37.9713L25.0208 35.6967L27.5533 39.603C27.877 40.1024 28.3958 40.4227 28.9767 40.4818C29.0414 40.4884 29.1058 40.4916 29.1701 40.4916C29.6825 40.4916 30.1733 40.2842 30.5402 39.9071L32.0853 38.3184V48.3633C32.0853 48.8959 32.5051 49.3276 33.0231 49.3276C33.541 49.3276 33.9609 48.8959 33.9609 48.3633V38.3184L35.506 39.9071C35.8727 40.2843 36.3635 40.4917 36.8761 40.4917C36.9402 40.4917 37.0047 40.4885 37.0694 40.4819C37.6503 40.4228 38.1692 40.1025 38.4929 39.6031L41.0255 35.697L47.1091 37.9716C48.319 38.4241 49.132 39.6175 49.132 40.9413V48.3634C49.132 48.896 49.5519 49.3278 50.0699 49.3278C50.5878 49.3278 51.0077 48.896 51.0077 48.3634V40.9413C51.0077 39.6005 50.4896 38.3431 49.6206 37.4131L49.8523 37.345C50.086 37.2764 50.4049 37.1824 50.725 37.021L53.1194 39.4832V48.3634C53.1194 48.896 53.5393 49.3278 54.0573 49.3278C54.5752 49.3278 54.9951 48.896 54.9951 48.3634V39.4832L57.373 37.0381C57.4994 37.1042 57.6322 37.16 57.772 37.201L61.6453 38.3389C62.5294 38.5987 63.147 39.4405 63.147 40.386V48.3634C63.147 48.896 63.5669 49.3278 64.0848 49.3278C64.6028 49.3278 65.0227 48.896 65.0227 48.3634V40.386C65.0227 38.5836 63.8457 36.9791 62.1606 36.484ZM7.0165 34.7807C5.26226 34.1317 4.38232 33.2663 4.00669 32.7938C4.26278 32.1054 4.42884 31.317 4.54125 30.4847C5.05844 31.7598 5.92462 32.8483 7.0165 33.6249V34.7807ZM12.389 37.3906C11.5891 38.1721 10.3361 38.1719 9.5364 37.3904L8.66421 36.5382C8.81139 36.2547 8.89229 35.9333 8.89229 35.5965V34.5687C9.54653 34.7789 10.242 34.8923 10.9628 34.8923C11.6827 34.8923 12.3778 34.7784 13.0331 34.5693L13.033 35.5964C13.033 35.9333 13.1138 36.2548 13.2611 36.5385L12.389 37.3906ZM10.963 32.9637C8.16254 32.9637 5.88435 30.621 5.88435 27.7415C5.88435 27.209 5.46446 26.7772 4.94652 26.7772C4.894 26.7772 4.84274 26.7827 4.79259 26.7913C4.79534 26.7084 4.79797 26.6253 4.80072 26.5432C4.8216 25.8801 4.84173 25.2538 4.87887 24.7166C4.99867 22.9839 5.67203 21.3873 6.77492 20.2206C7.88769 19.0433 9.37496 18.395 10.9628 18.395C12.5506 18.395 14.0377 19.0433 15.1506 20.2206C16.2535 21.3873 16.9269 22.9839 17.0467 24.7166C17.0837 25.2537 17.1039 25.8799 17.1252 26.5428C17.1271 26.5998 17.129 26.6575 17.1308 26.7148C16.1105 25.0984 14.5347 23.9071 12.4986 23.2344C10.6175 22.613 8.99971 22.6514 8.93143 22.6532C8.68585 22.6603 8.45276 22.766 8.28233 22.9478L6.59023 24.7522C6.23073 25.1357 6.24148 25.7461 6.61436 26.1158C6.98724 26.4855 7.58095 26.4743 7.94046 26.091L9.34845 24.5896C10.561 24.6505 14.462 25.117 15.9792 28.5522C15.5974 31.0836 13.4814 32.9637 10.963 32.9637ZM14.9085 34.7839L14.9087 33.6338C15.9997 32.8614 16.8671 31.775 17.3847 30.4902C17.4971 31.3206 17.663 32.1072 17.9186 32.7941C17.5451 33.2621 16.661 34.1351 14.9085 34.7839ZM23.9335 19.1395V16.7469C23.9335 16.6018 23.9016 16.4584 23.8402 16.3276C23.2367 15.0426 22.9308 13.6792 22.9308 12.2752V10.213C22.9308 6.19643 26.1088 2.92878 30.0149 2.92878H43.1157V12.2753C43.1157 13.6793 42.8097 15.0428 42.2062 16.3278C42.1448 16.4585 42.1129 16.6019 42.1129 16.7471V19.4928C42.1129 22.1043 41.0919 24.5266 39.238 26.3134C39.0066 26.5364 38.7664 26.7454 38.518 26.9402C38.5125 26.9441 38.5073 26.9483 38.5019 26.9523C36.7652 28.3082 34.6379 28.9671 32.4164 28.8191C27.6596 28.5024 23.9335 24.2507 23.9335 19.1395ZM29.214 38.5431C29.2075 38.5498 29.1924 38.5656 29.1617 38.5623C29.1312 38.5592 29.1192 38.5408 29.1141 38.5328L26.1974 34.0342L27.136 33.0201L31.5607 36.13L29.214 38.5431ZM33.0232 34.8217L27.9445 31.2522V29.4521C29.2586 30.1826 30.73 30.6394 32.295 30.7435C32.5422 30.76 32.7879 30.7681 33.0328 30.7681C34.8261 30.7681 36.552 30.3273 38.1019 29.4907V31.2522L33.0232 34.8217ZM36.9323 38.5331C36.9272 38.5411 36.9152 38.5595 36.8847 38.5625C36.8541 38.5665 36.8391 38.5499 36.8324 38.5434L34.4857 36.1304L38.9104 33.0204L39.8491 34.0345L36.9323 38.5331ZM54.0573 37.7195L51.929 35.5312C51.9662 35.3578 51.9872 35.1679 51.987 34.9584L51.9869 34.5515C52.5775 34.7508 53.2 34.869 53.8441 34.8888C53.9164 34.8912 53.988 34.8922 54.06 34.8922C54.7718 34.8922 55.4665 34.7816 56.1278 34.5706V34.9589C56.1278 35.1513 56.1513 35.3398 56.1955 35.5209L54.0573 37.7195ZM57.5939 31.4894C56.5999 32.4812 55.2868 33.0051 53.9005 32.9611C51.1865 32.8774 48.9786 30.4194 48.9786 27.4821V25.6793C48.9786 25.5295 48.9447 25.3819 48.8796 25.248L48.3002 24.0566C48.088 23.6201 47.9759 23.1315 47.9759 22.6435V22.586C47.9759 20.2749 49.8044 18.3949 52.0518 18.3949H60.1388V22.4001C60.1388 23.0473 59.99 23.6955 59.7085 24.2744L59.2351 25.248C59.17 25.382 59.1361 25.5295 59.1361 25.6793V27.7414C59.1361 29.166 58.5884 30.4971 57.5939 31.4894Z"/>
</mask>
<path d="M62.1606 36.484L58.2874 35.3461C58.1202 35.297 58.0034 35.1378 58.0034 34.9589V33.6296C58.3185 33.4051 58.6191 33.1538 58.9001 32.8734C60.2618 31.5146 61.0117 29.692 61.0117 27.7413V25.9069L61.3862 25.1368C61.7973 24.2914 62.0145 23.345 62.0145 22.3999V17.4304C62.0145 16.8979 61.5946 16.4661 61.0766 16.4661H52.0518C48.7702 16.4661 46.1002 19.2115 46.1002 22.5859V22.6433C46.1002 23.4292 46.2809 24.2162 46.6226 24.919L47.1029 25.9067V27.4818C47.1029 29.978 48.2992 32.2177 50.1113 33.5654L50.1115 34.9587C50.1115 35.1735 50.1115 35.2625 49.3371 35.4901L47.4472 36.0453L41.9801 34.0012C41.9998 33.7359 41.9127 33.4661 41.7245 33.2629L39.9775 31.3756V28.2075C40.1622 28.051 40.3443 27.8903 40.5207 27.7203C42.7246 25.5962 43.9886 22.5973 43.9886 19.4926V16.9624C44.6541 15.4734 44.9913 13.8977 44.9913 12.2749V1.96433C44.9913 1.43176 44.5714 1 44.0535 1H30.0149C25.0744 1 21.0551 5.13297 21.0551 10.2129V12.2752C21.0551 13.8979 21.3923 15.4736 22.0578 16.9627V19.1396C22.0578 22.7444 23.6166 25.992 26.0689 28.133V31.3757L24.3219 33.263C24.1337 33.4663 24.0467 33.736 24.0663 34.0013L18.2961 36.1587C17.878 36.315 17.4895 36.5268 17.1367 36.7833L16.2306 36.3175C18.9278 35.1103 19.7823 33.4124 19.8233 33.3281C19.9553 33.0566 19.9553 32.737 19.8233 32.4656C19.1472 31.0751 19.0653 28.5266 18.9995 26.4789C18.9776 25.7972 18.9569 25.1531 18.9172 24.5797C18.5975 19.9543 15.1778 16.4661 10.9625 16.4661C6.74728 16.4661 3.32745 19.9541 3.00784 24.5797C2.9682 25.1533 2.94744 25.7973 2.92556 26.4792C2.85978 28.5267 2.77775 31.075 2.10176 32.4654C1.96972 32.7369 1.96972 33.0565 2.10176 33.3279C2.14278 33.4123 2.99546 35.1067 5.69804 36.3153L3.18127 37.6091C1.8358 38.3014 1 39.692 1 41.2386V48.3629C1 48.8955 1.4199 49.3272 1.93783 49.3272C2.45577 49.3272 2.87566 48.8955 2.87566 48.3629V41.2386C2.87566 40.427 3.31419 39.6974 4.02007 39.3344L7.15405 37.7232L8.24419 38.7884C9.00646 39.5333 9.9843 39.9055 10.9625 39.9055C11.9405 39.9055 12.9188 39.533 13.6809 38.7884L14.7709 37.7233L15.7927 38.2487C15.3116 39.0403 15.0385 39.9687 15.0385 40.9411V48.3632C15.0385 48.8957 15.4584 49.3275 15.9763 49.3275C16.4942 49.3275 16.9141 48.8957 16.9141 48.3632V40.9411C16.9141 39.6173 17.727 38.4238 18.9371 37.9713L25.0208 35.6967L27.5533 39.603C27.877 40.1024 28.3958 40.4227 28.9767 40.4818C29.0414 40.4884 29.1058 40.4916 29.1701 40.4916C29.6825 40.4916 30.1733 40.2842 30.5402 39.9071L32.0853 38.3184V48.3633C32.0853 48.8959 32.5051 49.3276 33.0231 49.3276C33.541 49.3276 33.9609 48.8959 33.9609 48.3633V38.3184L35.506 39.9071C35.8727 40.2843 36.3635 40.4917 36.8761 40.4917C36.9402 40.4917 37.0047 40.4885 37.0694 40.4819C37.6503 40.4228 38.1692 40.1025 38.4929 39.6031L41.0255 35.697L47.1091 37.9716C48.319 38.4241 49.132 39.6175 49.132 40.9413V48.3634C49.132 48.896 49.5519 49.3278 50.0699 49.3278C50.5878 49.3278 51.0077 48.896 51.0077 48.3634V40.9413C51.0077 39.6005 50.4896 38.3431 49.6206 37.4131L49.8523 37.345C50.086 37.2764 50.4049 37.1824 50.725 37.021L53.1194 39.4832V48.3634C53.1194 48.896 53.5393 49.3278 54.0573 49.3278C54.5752 49.3278 54.9951 48.896 54.9951 48.3634V39.4832L57.373 37.0381C57.4994 37.1042 57.6322 37.16 57.772 37.201L61.6453 38.3389C62.5294 38.5987 63.147 39.4405 63.147 40.386V48.3634C63.147 48.896 63.5669 49.3278 64.0848 49.3278C64.6028 49.3278 65.0227 48.896 65.0227 48.3634V40.386C65.0227 38.5836 63.8457 36.9791 62.1606 36.484ZM7.0165 34.7807C5.26226 34.1317 4.38232 33.2663 4.00669 32.7938C4.26278 32.1054 4.42884 31.317 4.54125 30.4847C5.05844 31.7598 5.92462 32.8483 7.0165 33.6249V34.7807ZM12.389 37.3906C11.5891 38.1721 10.3361 38.1719 9.5364 37.3904L8.66421 36.5382C8.81139 36.2547 8.89229 35.9333 8.89229 35.5965V34.5687C9.54653 34.7789 10.242 34.8923 10.9628 34.8923C11.6827 34.8923 12.3778 34.7784 13.0331 34.5693L13.033 35.5964C13.033 35.9333 13.1138 36.2548 13.2611 36.5385L12.389 37.3906ZM10.963 32.9637C8.16254 32.9637 5.88435 30.621 5.88435 27.7415C5.88435 27.209 5.46446 26.7772 4.94652 26.7772C4.894 26.7772 4.84274 26.7827 4.79259 26.7913C4.79534 26.7084 4.79797 26.6253 4.80072 26.5432C4.8216 25.8801 4.84173 25.2538 4.87887 24.7166C4.99867 22.9839 5.67203 21.3873 6.77492 20.2206C7.88769 19.0433 9.37496 18.395 10.9628 18.395C12.5506 18.395 14.0377 19.0433 15.1506 20.2206C16.2535 21.3873 16.9269 22.9839 17.0467 24.7166C17.0837 25.2537 17.1039 25.8799 17.1252 26.5428C17.1271 26.5998 17.129 26.6575 17.1308 26.7148C16.1105 25.0984 14.5347 23.9071 12.4986 23.2344C10.6175 22.613 8.99971 22.6514 8.93143 22.6532C8.68585 22.6603 8.45276 22.766 8.28233 22.9478L6.59023 24.7522C6.23073 25.1357 6.24148 25.7461 6.61436 26.1158C6.98724 26.4855 7.58095 26.4743 7.94046 26.091L9.34845 24.5896C10.561 24.6505 14.462 25.117 15.9792 28.5522C15.5974 31.0836 13.4814 32.9637 10.963 32.9637ZM14.9085 34.7839L14.9087 33.6338C15.9997 32.8614 16.8671 31.775 17.3847 30.4902C17.4971 31.3206 17.663 32.1072 17.9186 32.7941C17.5451 33.2621 16.661 34.1351 14.9085 34.7839ZM23.9335 19.1395V16.7469C23.9335 16.6018 23.9016 16.4584 23.8402 16.3276C23.2367 15.0426 22.9308 13.6792 22.9308 12.2752V10.213C22.9308 6.19643 26.1088 2.92878 30.0149 2.92878H43.1157V12.2753C43.1157 13.6793 42.8097 15.0428 42.2062 16.3278C42.1448 16.4585 42.1129 16.6019 42.1129 16.7471V19.4928C42.1129 22.1043 41.0919 24.5266 39.238 26.3134C39.0066 26.5364 38.7664 26.7454 38.518 26.9402C38.5125 26.9441 38.5073 26.9483 38.5019 26.9523C36.7652 28.3082 34.6379 28.9671 32.4164 28.8191C27.6596 28.5024 23.9335 24.2507 23.9335 19.1395ZM29.214 38.5431C29.2075 38.5498 29.1924 38.5656 29.1617 38.5623C29.1312 38.5592 29.1192 38.5408 29.1141 38.5328L26.1974 34.0342L27.136 33.0201L31.5607 36.13L29.214 38.5431ZM33.0232 34.8217L27.9445 31.2522V29.4521C29.2586 30.1826 30.73 30.6394 32.295 30.7435C32.5422 30.76 32.7879 30.7681 33.0328 30.7681C34.8261 30.7681 36.552 30.3273 38.1019 29.4907V31.2522L33.0232 34.8217ZM36.9323 38.5331C36.9272 38.5411 36.9152 38.5595 36.8847 38.5625C36.8541 38.5665 36.8391 38.5499 36.8324 38.5434L34.4857 36.1304L38.9104 33.0204L39.8491 34.0345L36.9323 38.5331ZM54.0573 37.7195L51.929 35.5312C51.9662 35.3578 51.9872 35.1679 51.987 34.9584L51.9869 34.5515C52.5775 34.7508 53.2 34.869 53.8441 34.8888C53.9164 34.8912 53.988 34.8922 54.06 34.8922C54.7718 34.8922 55.4665 34.7816 56.1278 34.5706V34.9589C56.1278 35.1513 56.1513 35.3398 56.1955 35.5209L54.0573 37.7195ZM57.5939 31.4894C56.5999 32.4812 55.2868 33.0051 53.9005 32.9611C51.1865 32.8774 48.9786 30.4194 48.9786 27.4821V25.6793C48.9786 25.5295 48.9447 25.3819 48.8796 25.248L48.3002 24.0566C48.088 23.6201 47.9759 23.1315 47.9759 22.6435V22.586C47.9759 20.2749 49.8044 18.3949 52.0518 18.3949H60.1388V22.4001C60.1388 23.0473 59.99 23.6955 59.7085 24.2744L59.2351 25.248C59.17 25.382 59.1361 25.5295 59.1361 25.6793V27.7414C59.1361 29.166 58.5884 30.4971 57.5939 31.4894Z" fill="#324894"/>
<path d="M62.1606 36.484L58.2874 35.3461C58.1202 35.297 58.0034 35.1378 58.0034 34.9589V33.6296C58.3185 33.4051 58.6191 33.1538 58.9001 32.8734C60.2618 31.5146 61.0117 29.692 61.0117 27.7413V25.9069L61.3862 25.1368C61.7973 24.2914 62.0145 23.345 62.0145 22.3999V17.4304C62.0145 16.8979 61.5946 16.4661 61.0766 16.4661H52.0518C48.7702 16.4661 46.1002 19.2115 46.1002 22.5859V22.6433C46.1002 23.4292 46.2809 24.2162 46.6226 24.919L47.1029 25.9067V27.4818C47.1029 29.978 48.2992 32.2177 50.1113 33.5654L50.1115 34.9587C50.1115 35.1735 50.1115 35.2625 49.3371 35.4901L47.4472 36.0453L41.9801 34.0012C41.9998 33.7359 41.9127 33.4661 41.7245 33.2629L39.9775 31.3756V28.2075C40.1622 28.051 40.3443 27.8903 40.5207 27.7203C42.7246 25.5962 43.9886 22.5973 43.9886 19.4926V16.9624C44.6541 15.4734 44.9913 13.8977 44.9913 12.2749V1.96433C44.9913 1.43176 44.5714 1 44.0535 1H30.0149C25.0744 1 21.0551 5.13297 21.0551 10.2129V12.2752C21.0551 13.8979 21.3923 15.4736 22.0578 16.9627V19.1396C22.0578 22.7444 23.6166 25.992 26.0689 28.133V31.3757L24.3219 33.263C24.1337 33.4663 24.0467 33.736 24.0663 34.0013L18.2961 36.1587C17.878 36.315 17.4895 36.5268 17.1367 36.7833L16.2306 36.3175C18.9278 35.1103 19.7823 33.4124 19.8233 33.3281C19.9553 33.0566 19.9553 32.737 19.8233 32.4656C19.1472 31.0751 19.0653 28.5266 18.9995 26.4789C18.9776 25.7972 18.9569 25.1531 18.9172 24.5797C18.5975 19.9543 15.1778 16.4661 10.9625 16.4661C6.74728 16.4661 3.32745 19.9541 3.00784 24.5797C2.9682 25.1533 2.94744 25.7973 2.92556 26.4792C2.85978 28.5267 2.77775 31.075 2.10176 32.4654C1.96972 32.7369 1.96972 33.0565 2.10176 33.3279C2.14278 33.4123 2.99546 35.1067 5.69804 36.3153L3.18127 37.6091C1.8358 38.3014 1 39.692 1 41.2386V48.3629C1 48.8955 1.4199 49.3272 1.93783 49.3272C2.45577 49.3272 2.87566 48.8955 2.87566 48.3629V41.2386C2.87566 40.427 3.31419 39.6974 4.02007 39.3344L7.15405 37.7232L8.24419 38.7884C9.00646 39.5333 9.9843 39.9055 10.9625 39.9055C11.9405 39.9055 12.9188 39.533 13.6809 38.7884L14.7709 37.7233L15.7927 38.2487C15.3116 39.0403 15.0385 39.9687 15.0385 40.9411V48.3632C15.0385 48.8957 15.4584 49.3275 15.9763 49.3275C16.4942 49.3275 16.9141 48.8957 16.9141 48.3632V40.9411C16.9141 39.6173 17.727 38.4238 18.9371 37.9713L25.0208 35.6967L27.5533 39.603C27.877 40.1024 28.3958 40.4227 28.9767 40.4818C29.0414 40.4884 29.1058 40.4916 29.1701 40.4916C29.6825 40.4916 30.1733 40.2842 30.5402 39.9071L32.0853 38.3184V48.3633C32.0853 48.8959 32.5051 49.3276 33.0231 49.3276C33.541 49.3276 33.9609 48.8959 33.9609 48.3633V38.3184L35.506 39.9071C35.8727 40.2843 36.3635 40.4917 36.8761 40.4917C36.9402 40.4917 37.0047 40.4885 37.0694 40.4819C37.6503 40.4228 38.1692 40.1025 38.4929 39.6031L41.0255 35.697L47.1091 37.9716C48.319 38.4241 49.132 39.6175 49.132 40.9413V48.3634C49.132 48.896 49.5519 49.3278 50.0699 49.3278C50.5878 49.3278 51.0077 48.896 51.0077 48.3634V40.9413C51.0077 39.6005 50.4896 38.3431 49.6206 37.4131L49.8523 37.345C50.086 37.2764 50.4049 37.1824 50.725 37.021L53.1194 39.4832V48.3634C53.1194 48.896 53.5393 49.3278 54.0573 49.3278C54.5752 49.3278 54.9951 48.896 54.9951 48.3634V39.4832L57.373 37.0381C57.4994 37.1042 57.6322 37.16 57.772 37.201L61.6453 38.3389C62.5294 38.5987 63.147 39.4405 63.147 40.386V48.3634C63.147 48.896 63.5669 49.3278 64.0848 49.3278C64.6028 49.3278 65.0227 48.896 65.0227 48.3634V40.386C65.0227 38.5836 63.8457 36.9791 62.1606 36.484ZM7.0165 34.7807C5.26226 34.1317 4.38232 33.2663 4.00669 32.7938C4.26278 32.1054 4.42884 31.317 4.54125 30.4847C5.05844 31.7598 5.92462 32.8483 7.0165 33.6249V34.7807ZM12.389 37.3906C11.5891 38.1721 10.3361 38.1719 9.5364 37.3904L8.66421 36.5382C8.81139 36.2547 8.89229 35.9333 8.89229 35.5965V34.5687C9.54653 34.7789 10.242 34.8923 10.9628 34.8923C11.6827 34.8923 12.3778 34.7784 13.0331 34.5693L13.033 35.5964C13.033 35.9333 13.1138 36.2548 13.2611 36.5385L12.389 37.3906ZM10.963 32.9637C8.16254 32.9637 5.88435 30.621 5.88435 27.7415C5.88435 27.209 5.46446 26.7772 4.94652 26.7772C4.894 26.7772 4.84274 26.7827 4.79259 26.7913C4.79534 26.7084 4.79797 26.6253 4.80072 26.5432C4.8216 25.8801 4.84173 25.2538 4.87887 24.7166C4.99867 22.9839 5.67203 21.3873 6.77492 20.2206C7.88769 19.0433 9.37496 18.395 10.9628 18.395C12.5506 18.395 14.0377 19.0433 15.1506 20.2206C16.2535 21.3873 16.9269 22.9839 17.0467 24.7166C17.0837 25.2537 17.1039 25.8799 17.1252 26.5428C17.1271 26.5998 17.129 26.6575 17.1308 26.7148C16.1105 25.0984 14.5347 23.9071 12.4986 23.2344C10.6175 22.613 8.99971 22.6514 8.93143 22.6532C8.68585 22.6603 8.45276 22.766 8.28233 22.9478L6.59023 24.7522C6.23073 25.1357 6.24148 25.7461 6.61436 26.1158C6.98724 26.4855 7.58095 26.4743 7.94046 26.091L9.34845 24.5896C10.561 24.6505 14.462 25.117 15.9792 28.5522C15.5974 31.0836 13.4814 32.9637 10.963 32.9637ZM14.9085 34.7839L14.9087 33.6338C15.9997 32.8614 16.8671 31.775 17.3847 30.4902C17.4971 31.3206 17.663 32.1072 17.9186 32.7941C17.5451 33.2621 16.661 34.1351 14.9085 34.7839ZM23.9335 19.1395V16.7469C23.9335 16.6018 23.9016 16.4584 23.8402 16.3276C23.2367 15.0426 22.9308 13.6792 22.9308 12.2752V10.213C22.9308 6.19643 26.1088 2.92878 30.0149 2.92878H43.1157V12.2753C43.1157 13.6793 42.8097 15.0428 42.2062 16.3278C42.1448 16.4585 42.1129 16.6019 42.1129 16.7471V19.4928C42.1129 22.1043 41.0919 24.5266 39.238 26.3134C39.0066 26.5364 38.7664 26.7454 38.518 26.9402C38.5125 26.9441 38.5073 26.9483 38.5019 26.9523C36.7652 28.3082 34.6379 28.9671 32.4164 28.8191C27.6596 28.5024 23.9335 24.2507 23.9335 19.1395ZM29.214 38.5431C29.2075 38.5498 29.1924 38.5656 29.1617 38.5623C29.1312 38.5592 29.1192 38.5408 29.1141 38.5328L26.1974 34.0342L27.136 33.0201L31.5607 36.13L29.214 38.5431ZM33.0232 34.8217L27.9445 31.2522V29.4521C29.2586 30.1826 30.73 30.6394 32.295 30.7435C32.5422 30.76 32.7879 30.7681 33.0328 30.7681C34.8261 30.7681 36.552 30.3273 38.1019 29.4907V31.2522L33.0232 34.8217ZM36.9323 38.5331C36.9272 38.5411 36.9152 38.5595 36.8847 38.5625C36.8541 38.5665 36.8391 38.5499 36.8324 38.5434L34.4857 36.1304L38.9104 33.0204L39.8491 34.0345L36.9323 38.5331ZM54.0573 37.7195L51.929 35.5312C51.9662 35.3578 51.9872 35.1679 51.987 34.9584L51.9869 34.5515C52.5775 34.7508 53.2 34.869 53.8441 34.8888C53.9164 34.8912 53.988 34.8922 54.06 34.8922C54.7718 34.8922 55.4665 34.7816 56.1278 34.5706V34.9589C56.1278 35.1513 56.1513 35.3398 56.1955 35.5209L54.0573 37.7195ZM57.5939 31.4894C56.5999 32.4812 55.2868 33.0051 53.9005 32.9611C51.1865 32.8774 48.9786 30.4194 48.9786 27.4821V25.6793C48.9786 25.5295 48.9447 25.3819 48.8796 25.248L48.3002 24.0566C48.088 23.6201 47.9759 23.1315 47.9759 22.6435V22.586C47.9759 20.2749 49.8044 18.3949 52.0518 18.3949H60.1388V22.4001C60.1388 23.0473 59.99 23.6955 59.7085 24.2744L59.2351 25.248C59.17 25.382 59.1361 25.5295 59.1361 25.6793V27.7414C59.1361 29.166 58.5884 30.4971 57.5939 31.4894Z" stroke="#324894" stroke-width="0.6" mask="url(#path-1-outside-1)"/>
</svg>
