<?xml version="1.0" standalone="no"?>
<!DOCTYPE svg PUBLIC "-//W3C//DTD SVG 20010904//EN"
 "http://www.w3.org/TR/2001/REC-SVG-20010904/DTD/svg10.dtd">
<svg version="1.0" xmlns="http://www.w3.org/2000/svg"
 width="512.000000pt" height="512.000000pt" viewBox="0 0 512.000000 512.000000"
 preserveAspectRatio="xMidYMid meet">

<g transform="translate(0.000000,512.000000) scale(0.100000,-0.100000)"
fill="#000000" stroke="none">
<path d="M645 5010 c-123 -5 -159 -10 -198 -28 -72 -32 -75 -46 -67 -297 3
-115 5 -212 4 -213 -2 -2 -56 -8 -121 -13 -144 -12 -173 -20 -212 -64 -35 -40
-46 -83 -46 -180 0 -82 22 -128 75 -160 30 -17 52 -20 167 -20 l132 0 3 -85
c2 -47 3 -86 3 -86 0 -1 -58 -7 -128 -12 -144 -12 -191 -29 -219 -78 -27 -47
-42 -134 -33 -200 6 -49 13 -64 43 -95 49 -48 111 -62 247 -53 l102 7 7 -83
c4 -45 5 -84 2 -87 -2 -3 -58 -9 -123 -14 -153 -11 -196 -24 -232 -64 -54 -62
-65 -220 -20 -294 34 -57 90 -73 232 -70 l122 4 3 -88 c1 -48 -1 -87 -5 -87
-94 -2 -254 -24 -289 -40 -62 -27 -88 -84 -89 -195 0 -103 15 -138 74 -173 43
-25 53 -27 169 -27 l122 1 0 -87 0 -86 -102 -7 c-136 -10 -176 -21 -214 -61
-60 -64 -71 -242 -18 -304 40 -48 93 -63 221 -62 l113 1 0 -84 0 -85 -32 -5
c-18 -3 -71 -8 -118 -11 -165 -12 -213 -63 -214 -225 -1 -100 14 -136 71 -172
35 -21 49 -23 163 -23 l125 0 -3 -103 c-6 -150 27 -220 118 -251 89 -31 1008
-56 1505 -41 420 12 758 28 780 36 13 5 15 -14 15 -143 0 -134 2 -153 23 -193
34 -68 76 -84 312 -121 289 -44 411 -57 675 -71 326 -17 895 -17 984 0 133 25
215 82 258 178 51 117 95 468 84 668 -8 137 -22 921 -36 1966 -5 388 -13 743
-19 790 -6 47 -17 164 -26 260 -9 96 -20 202 -26 235 -21 119 -86 196 -196
231 -72 23 -273 29 -497 15 -256 -16 -494 -4 -535 27 l-26 20 4 147 c2 97 -1
162 -9 191 -15 52 -56 91 -103 98 -18 3 -266 10 -552 16 -710 14 -1164 27
-1520 45 -301 15 -650 17 -930 5z m960 -125 c374 -21 1520 -58 1860 -61 72 0
135 -2 142 -2 20 -3 34 -69 36 -169 2 -168 -25 -191 -206 -177 -167 13 -344
11 -400 -5 -26 -8 -67 -31 -92 -53 -89 -79 -107 -194 -110 -718 -1 -195 -7
-555 -14 -800 -23 -910 -31 -1336 -31 -1735 l0 -410 -177 0 c-98 0 -288 -6
-423 -14 -187 -11 -388 -12 -845 -7 -594 6 -750 13 -818 35 -43 14 -52 39 -62
158 l-6 81 68 6 c98 9 201 33 240 57 58 36 78 88 78 204 0 106 -13 147 -58
174 -31 20 -123 23 -215 8 -60 -10 -85 -11 -87 -3 -2 6 -5 45 -8 87 l-4 76 80
6 c171 14 255 58 282 149 30 102 14 231 -35 272 -40 33 -96 39 -207 21 -78
-13 -98 -13 -105 -3 -4 7 -8 43 -8 81 0 37 -1 70 -2 75 -2 4 38 10 87 14 146
10 221 43 258 112 29 55 32 222 4 274 -32 59 -102 74 -248 51 -39 -6 -72 -9
-73 -7 -2 1 -7 39 -10 84 l-7 81 96 11 c208 24 276 99 262 288 -9 118 -47 158
-151 159 -34 0 -86 -4 -117 -8 l-56 -9 -6 70 c-4 39 -9 77 -12 85 -5 11 9 15
67 20 160 14 236 58 264 155 20 67 15 182 -10 229 -28 54 -65 67 -176 59 -52
-3 -107 -9 -121 -12 -23 -5 -27 -2 -33 26 -3 18 -6 56 -6 85 0 60 7 65 90 65
62 0 145 24 190 53 58 39 75 84 75 202 0 106 -13 147 -57 174 -33 21 -117 24
-213 8 -49 -8 -91 -14 -92 -14 -1 1 1 93 4 203 l6 202 136 9 c214 15 691 14
976 -2z m-900 -520 c30 -29 34 -89 10 -135 -26 -51 -64 -62 -230 -71 -82 -4
-179 -10 -215 -14 -89 -10 -135 9 -149 61 -14 50 6 95 50 116 21 10 102 23
209 33 145 14 217 22 293 34 4 0 19 -10 32 -24z m3115 -16 c74 -5 320 -9 545
-10 283 0 422 -4 449 -12 64 -20 78 -49 88 -184 5 -65 18 -208 30 -318 17
-167 22 -303 29 -830 11 -826 26 -1690 34 -1940 6 -170 4 -230 -14 -400 -32
-288 -55 -356 -135 -397 -68 -35 -427 -45 -856 -24 -411 21 -500 28 -760 62
-269 35 -279 37 -308 94 -23 43 -23 51 -17 190 3 80 6 397 6 705 0 372 5 656
15 845 10 179 19 615 24 1170 5 576 12 902 19 934 14 62 50 109 93 124 38 12
536 7 758 -9z m-3109 -590 c18 -18 21 -30 17 -75 -9 -102 -49 -122 -272 -134
-257 -15 -281 -14 -312 13 -21 19 -27 32 -27 66 0 83 39 100 273 121 69 6 152
15 185 19 98 14 114 12 136 -10z m3 -611 c20 -29 20 -90 1 -128 -28 -53 -60
-62 -299 -78 -198 -13 -221 -13 -252 1 -43 21 -60 74 -40 122 20 47 71 62 281
81 99 9 182 18 184 20 2 2 28 4 57 4 43 0 56 -4 68 -22z m-7 -604 c22 -22 25
-32 21 -75 -6 -54 -33 -93 -78 -111 -23 -9 -323 -31 -428 -31 -23 0 -54 6 -67
13 -40 22 -52 99 -22 138 24 30 73 42 234 58 92 8 193 19 223 24 86 12 89 12
117 -16z m7 -606 c42 -59 3 -162 -69 -186 -57 -19 -442 -37 -478 -23 -55 21
-68 108 -22 151 29 27 68 36 220 50 66 6 149 14 185 19 118 15 147 13 164 -11z
m-9 -603 c30 -29 34 -89 9 -136 -24 -47 -70 -61 -234 -69 -80 -5 -174 -12
-210 -15 -89 -10 -135 9 -149 61 -8 28 -7 45 4 71 22 52 53 61 275 79 51 4
178 19 273 33 4 0 19 -10 32 -24z"/>
<path d="M1134 4536 c-49 -22 -58 -57 -50 -204 21 -365 21 -371 42 -399 61
-82 116 -93 495 -100 442 -8 564 9 637 93 58 65 76 132 76 284 1 148 -14 200
-73 253 -80 72 -200 87 -711 87 -299 -1 -392 -4 -416 -14z m579 -65 c197 -6
377 -15 400 -22 65 -17 104 -46 127 -95 20 -40 22 -57 18 -172 -3 -111 -6
-132 -27 -168 -53 -94 -128 -107 -592 -102 -325 3 -335 4 -386 26 -88 40 -86
37 -96 260 -4 108 -6 206 -2 219 10 43 90 76 165 68 19 -2 196 -9 393 -14z"/>
<path d="M1752 3798 c-7 -7 -12 -46 -12 -102 -1 -197 -52 -243 -285 -257 -138
-8 -176 -17 -213 -52 -39 -36 -54 -76 -59 -157 l-6 -78 -29 34 c-32 37 -58 43
-78 19 -10 -12 -7 -23 13 -57 30 -50 114 -138 131 -138 7 0 23 11 36 25 13 14
52 43 87 66 63 42 77 65 49 88 -15 13 -49 2 -98 -31 l-26 -18 -7 40 c-20 120
40 180 182 180 93 0 195 20 252 50 88 44 129 151 116 299 -9 93 -24 118 -53
89z"/>
<path d="M1822 3331 c-51 -9 -72 -25 -54 -43 10 -10 108 -13 423 -13 388 0
411 1 424 18 34 46 27 47 -374 46 -207 -1 -395 -5 -419 -8z"/>
<path d="M2085 3170 c-165 -3 -306 -9 -312 -13 -17 -11 -16 -34 1 -40 8 -3
196 -5 418 -4 432 2 451 4 427 48 -9 17 -21 19 -122 17 -62 -1 -247 -5 -412
-8z"/>
<path d="M1808 3003 c-29 -5 -53 -27 -44 -41 8 -13 517 -26 691 -17 149 8 181
17 169 50 -5 13 -61 15 -398 14 -215 -1 -403 -4 -418 -6z"/>
<path d="M1210 2940 c-150 -8 -179 -14 -231 -42 -54 -30 -72 -69 -77 -168 -6
-115 10 -153 75 -182 42 -20 70 -23 231 -26 262 -6 354 16 408 98 51 77 42
214 -20 276 -55 55 -93 59 -386 44z m302 -82 c57 -22 83 -108 52 -173 -14 -29
-30 -44 -73 -64 -54 -25 -63 -26 -236 -26 -210 0 -234 7 -265 78 -42 94 15
175 139 197 59 11 348 2 383 -12z"/>
<path d="M1801 2757 c-25 -6 -46 -18 -49 -24 -7 -24 49 -33 193 -33 271 0 360
-25 405 -115 l25 -50 0 -365 c0 -201 -4 -382 -8 -403 -11 -54 -40 -69 -148
-75 l-90 -5 21 36 c25 42 23 80 -4 85 -34 7 -146 -120 -146 -165 0 -15 19 -44
52 -80 75 -79 103 -97 128 -83 30 16 24 40 -22 87 l-42 43 69 0 c120 0 186 15
217 49 50 55 53 84 53 506 0 389 0 390 -24 442 -30 67 -85 117 -153 139 -69
22 -410 30 -477 11z"/>
<path d="M1192 2342 c-193 -2 -193 -3 -190 -24 2 -16 13 -24 38 -30 48 -11
780 -31 860 -24 36 3 75 9 88 12 26 7 29 39 5 50 -10 4 -101 9 -203 11 -102 2
-234 4 -295 6 -60 1 -197 1 -303 -1z"/>
<path d="M1010 2142 c-14 -5 -13 -39 1 -48 15 -9 627 -30 804 -27 146 1 190
10 190 38 0 12 -11 22 -30 29 -27 9 -938 17 -965 8z"/>
<path d="M1685 1889 c-38 -4 -180 -7 -315 -8 -349 -2 -387 -10 -429 -86 -35
-65 -9 -372 37 -435 40 -54 49 -55 387 -42 422 17 477 29 517 120 20 44 20 54
11 215 -11 168 -11 169 -40 199 -37 36 -77 45 -168 37z m105 -94 c18 -19 25
-43 33 -114 18 -153 -12 -229 -103 -260 -45 -15 -279 -30 -481 -31 -215 0
-218 3 -234 230 -5 74 -3 89 14 117 41 65 55 67 376 73 160 3 308 7 331 8 32
2 45 -3 64 -23z"/>
<path d="M3735 4190 c-530 -7 -570 -11 -580 -53 -5 -24 -19 -723 -18 -897 1
-58 4 -262 8 -454 5 -222 2 -554 -6 -910 -19 -760 -19 -791 8 -841 26 -49 44
-66 109 -98 111 -56 184 -62 679 -60 578 3 745 11 782 39 69 52 85 119 104
449 10 175 9 284 -4 655 -15 383 -37 1194 -51 1805 -2 103 -9 197 -16 220 -16
51 -84 119 -135 135 -52 16 -253 19 -880 10z m840 -122 c17 -9 41 -28 55 -43
22 -23 25 -36 26 -108 1 -45 7 -248 13 -452 6 -203 13 -491 16 -640 3 -148 13
-450 22 -670 16 -415 13 -861 -7 -1005 -11 -79 -30 -117 -71 -137 -43 -21
-257 -33 -668 -37 -317 -4 -425 -1 -500 10 -122 18 -177 45 -207 102 l-22 42
5 1112 c3 612 6 1262 7 1444 2 352 1 349 50 377 15 9 151 14 476 18 651 8 768
6 805 -13z"/>
<path d="M3504 3218 c-58 -15 -114 -101 -114 -176 0 -39 29 -81 70 -102 102
-52 704 -78 915 -40 115 21 168 82 169 193 1 52 -2 61 -26 82 -15 13 -51 28
-80 34 -65 12 -891 21 -934 9z m949 -96 c47 -41 1 -129 -79 -151 -95 -26 -815
-3 -874 29 -44 24 -38 97 12 129 33 22 35 22 478 15 380 -5 448 -9 463 -22z"/>
<path d="M3478 2770 c-42 -22 -88 -107 -88 -162 0 -60 54 -111 135 -126 145
-28 666 -45 804 -27 121 17 188 62 210 142 26 94 -2 151 -85 172 -31 8 -197
13 -495 16 -414 3 -450 2 -481 -15z m671 -65 c325 -4 321 -3 321 -68 0 -44
-17 -67 -68 -90 -42 -19 -70 -21 -253 -25 -216 -4 -589 19 -642 40 -54 21 -48
93 11 133 37 26 37 26 187 20 83 -3 283 -8 444 -10z"/>
<path d="M3505 2346 c-100 -37 -149 -183 -84 -252 35 -38 104 -53 300 -69 328
-26 634 -16 724 24 52 23 83 65 97 134 16 76 0 113 -61 141 -44 20 -63 21
-386 22 -187 0 -387 4 -445 8 -81 5 -114 3 -145 -8z m743 -76 c169 0 183 -1
202 -20 44 -44 5 -130 -68 -149 -136 -35 -822 -10 -886 33 -41 26 -36 76 12
116 l37 32 260 -6 c143 -3 342 -6 443 -6z"/>
<path d="M3884 1771 c-55 -25 -120 -85 -147 -135 -17 -32 -21 -57 -21 -113 1
-63 5 -78 33 -122 114 -177 425 -110 470 101 19 88 -9 172 -76 227 -73 60
-181 77 -259 42z m176 -71 c126 -64 119 -234 -13 -306 -41 -22 -58 -26 -111
-22 -107 7 -163 69 -154 173 5 60 34 102 101 148 50 34 119 37 177 7z"/>
<path d="M3933 789 c-57 -28 -120 -91 -144 -142 -69 -152 56 -312 230 -295
180 18 261 232 145 385 -57 75 -146 94 -231 52z m137 -98 c77 -81 73 -183 -10
-230 -148 -83 -286 100 -161 213 26 24 89 54 115 55 11 1 36 -16 56 -38z"/>
</g>
</svg>
